<?xml version="1.0" encoding="utf-8"?>
<!-- Generator: Adobe Illustrator 23.0.1, SVG Export Plug-In . SVG Version: 6.00 Build 0)  -->
<svg version="1.1" id="Layer_1" xmlns="http://www.w3.org/2000/svg" xmlns:xlink="http://www.w3.org/1999/xlink" x="0px" y="0px"
	 viewBox="0 0 1500 1500" style="enable-background:new 0 0 1500 1500;" xml:space="preserve">
<style type="text/css">
	.st0{fill:#1A1A1A;}
	.st1{fill:#333333;}
</style>
<g>
	<circle cx="725" cy="750" r="554"/>
</g>
<g>
	<path class="st0" d="M725,1218.5c-62.98,0-124.07-12.33-181.58-36.66c-55.55-23.5-105.44-57.13-148.28-99.98
		s-76.48-92.73-99.98-148.28C270.83,876.07,258.5,814.98,258.5,752c0-62.98,12.33-124.07,36.66-181.58
		c23.5-55.55,57.13-105.44,99.98-148.28s92.73-76.48,148.28-99.98C600.93,297.83,662.02,285.5,725,285.5
		c62.98,0,124.07,12.33,181.58,36.66c55.55,23.5,105.44,57.13,148.28,99.98s76.48,92.73,99.98,148.28
		c24.33,57.51,36.66,118.61,36.66,181.58c0,62.98-12.33,124.07-36.66,181.58c-23.5,55.55-57.13,105.44-99.98,148.28
		s-92.73,76.48-148.28,99.98C849.07,1206.17,787.98,1218.5,725,1218.5z"/>
	<path d="M725,286c62.91,0,123.94,12.32,181.39,36.62c55.49,23.47,105.33,57.07,148.12,99.87c42.8,42.8,76.4,92.63,99.87,148.12
		C1178.68,628.06,1191,689.09,1191,752s-12.32,123.94-36.62,181.39c-23.47,55.49-57.07,105.33-99.87,148.12
		c-42.8,42.8-92.63,76.4-148.12,99.87C848.94,1205.68,787.91,1218,725,1218s-123.94-12.32-181.39-36.62
		c-55.49-23.47-105.33-57.07-148.12-99.87c-42.8-42.8-76.4-92.63-99.87-148.12C271.32,875.94,259,814.91,259,752
		s12.32-123.94,36.62-181.39c23.47-55.49,57.07-105.33,99.87-148.12s92.63-76.4,148.12-99.87C601.06,298.32,662.09,286,725,286
		 M725,285c-257.92,0-467,209.08-467,467s209.08,467,467,467s467-209.08,467-467S982.92,285,725,285L725,285z"/>
</g>
<g>
	<circle class="st1" cx="731" cy="752" r="419"/>
</g>
</svg>
