<?xml version="1.0" encoding="utf-8"?>
<!-- Generator: Adobe Illustrator 23.0.1, SVG Export Plug-In . SVG Version: 6.00 Build 0)  -->
<svg version="1.1" id="Layer_1" xmlns="http://www.w3.org/2000/svg" xmlns:xlink="http://www.w3.org/1999/xlink" x="0px" y="0px"
	 viewBox="0 0 482.49 195.09" style="enable-background:new 0 0 482.49 195.09;" xml:space="preserve">
<style type="text/css">
	.st0{fill:#FFFFFF;}
</style>
<g>
	<path class="st0" d="M133.3,0.4h4.4l30,71h-5.4L152.4,48h-33.9l-9.9,23.4h-5.5L133.3,0.4z M151,43.8L135.5,6.6l-15.8,37.2H151z"/>
	<path class="st0" d="M178.5,71.4v-71h5.1v66.4H226v4.6H178.5z"/>
	<path class="st0" d="M236.6,71.4v-71h5.1v71H236.6z"/>
	<path class="st0" d="M255.4,35.4c0-4.27,0.75-8.52,2.25-12.75c1.5-4.23,3.68-8.02,6.55-11.35c2.87-3.33,6.38-6.05,10.55-8.15
		C278.91,1.05,283.66,0,289,0c6.33,0,11.73,1.45,16.2,4.35c4.47,2.9,7.8,6.62,10,11.15l-4.2,2.4c-1.27-2.47-2.75-4.53-4.45-6.2
		c-1.7-1.67-3.53-3.02-5.5-4.05c-1.97-1.03-4.02-1.78-6.15-2.25c-2.13-0.47-4.23-0.7-6.3-0.7c-4.53,0-8.53,0.92-12,2.75
		c-3.47,1.83-6.4,4.22-8.8,7.15c-2.4,2.93-4.22,6.25-5.45,9.95c-1.23,3.7-1.85,7.42-1.85,11.15c0,4.2,0.73,8.2,2.2,12
		c1.47,3.8,3.47,7.15,6,10.05c2.53,2.9,5.53,5.22,9,6.95c3.47,1.73,7.2,2.6,11.2,2.6c2.13,0,4.33-0.27,6.6-0.8
		c2.27-0.53,4.43-1.37,6.5-2.5c2.07-1.13,4-2.58,5.8-4.35c1.8-1.77,3.3-3.85,4.5-6.25l4.4,2.1c-1.2,2.67-2.83,5.03-4.9,7.1
		c-2.07,2.07-4.37,3.8-6.9,5.2c-2.54,1.4-5.22,2.45-8.05,3.15c-2.83,0.7-5.62,1.05-8.35,1.05c-4.87,0-9.32-1.07-13.35-3.2
		c-4.04-2.13-7.52-4.92-10.45-8.35c-2.93-3.43-5.22-7.33-6.85-11.7C256.21,44.38,255.4,39.93,255.4,35.4z"/>
	<path class="st0" d="M376.6,66.8v4.6h-47.3v-71h46.4V5h-41.3v27.9h36.1v4.4h-36.1v29.5H376.6z"/>
</g>
<g>
	<path class="st0" d="M0,152.4v-71h29.5c3,0,5.77,0.63,8.3,1.9c2.53,1.27,4.72,2.95,6.55,5.05c1.83,2.1,3.27,4.47,4.3,7.1
		c1.03,2.63,1.55,5.28,1.55,7.95c0,2.6-0.4,5.12-1.2,7.55c-0.8,2.43-1.93,4.62-3.4,6.55c-1.47,1.93-3.23,3.53-5.3,4.8
		c-2.07,1.27-4.33,2.1-6.8,2.5l17.7,27.6h-5.9l-17.2-26.8h-23v26.8H0z M5.1,120.9H30c2.27,0,4.33-0.5,6.2-1.5
		c1.87-1,3.47-2.32,4.8-3.95c1.33-1.63,2.35-3.5,3.05-5.6c0.7-2.1,1.05-4.25,1.05-6.45c0-2.27-0.42-4.45-1.25-6.55
		c-0.83-2.1-1.97-3.95-3.4-5.55c-1.43-1.6-3.1-2.88-5-3.85C33.55,86.48,31.5,86,29.3,86H5.1V120.9z"/>
	<path class="st0" d="M64.9,152.4v-71H70v71H64.9z"/>
	<path class="st0" d="M83.7,116.4c0-4.27,0.75-8.52,2.25-12.75c1.5-4.23,3.68-8.02,6.55-11.35c2.87-3.33,6.38-6.05,10.55-8.15
		c4.17-2.1,8.92-3.15,14.25-3.15c6.33,0,11.73,1.45,16.2,4.35c4.47,2.9,7.8,6.62,10,11.15l-4.2,2.4c-1.27-2.47-2.75-4.53-4.45-6.2
		c-1.7-1.67-3.53-3.02-5.5-4.05c-1.97-1.03-4.02-1.78-6.15-2.25c-2.13-0.47-4.23-0.7-6.3-0.7c-4.54,0-8.54,0.92-12,2.75
		c-3.47,1.83-6.4,4.22-8.8,7.15c-2.4,2.93-4.22,6.25-5.45,9.95c-1.23,3.7-1.85,7.42-1.85,11.15c0,4.2,0.73,8.2,2.2,12
		c1.47,3.8,3.47,7.15,6,10.05s5.53,5.22,9,6.95c3.47,1.73,7.2,2.6,11.2,2.6c2.13,0,4.33-0.27,6.6-0.8c2.27-0.53,4.43-1.37,6.5-2.5
		c2.06-1.13,4-2.58,5.8-4.35c1.8-1.77,3.3-3.85,4.5-6.25l4.4,2.1c-1.2,2.67-2.83,5.03-4.9,7.1c-2.07,2.07-4.37,3.8-6.9,5.2
		c-2.54,1.4-5.22,2.45-8.05,3.15c-2.83,0.7-5.62,1.05-8.35,1.05c-4.87,0-9.32-1.07-13.35-3.2c-4.04-2.13-7.52-4.92-10.45-8.35
		c-2.93-3.43-5.22-7.33-6.85-11.7C84.51,125.38,83.7,120.93,83.7,116.4z"/>
	<path class="st0" d="M212.6,81.4v71h-5.1v-34h-44.8v34h-5.1v-71h5.1v32.4h44.8V81.4H212.6z"/>
	<path class="st0" d="M253.4,81.4h4.4l30,71h-5.4l-9.9-23.4h-33.9l-9.9,23.4h-5.5L253.4,81.4z M271.1,124.8l-15.5-37.2l-15.8,37.2
		H271.1z"/>
	<path class="st0" d="M298.59,152.4v-71h29.5c3,0,5.77,0.63,8.3,1.9c2.53,1.27,4.72,2.95,6.55,5.05c1.83,2.1,3.27,4.47,4.3,7.1
		c1.03,2.63,1.55,5.28,1.55,7.95c0,2.6-0.4,5.12-1.2,7.55c-0.8,2.43-1.93,4.62-3.4,6.55c-1.47,1.93-3.23,3.53-5.3,4.8
		c-2.07,1.27-4.33,2.1-6.8,2.5l17.7,27.6h-5.9l-17.2-26.8h-23v26.8H298.59z M303.69,120.9h24.9c2.27,0,4.33-0.5,6.2-1.5
		c1.87-1,3.47-2.32,4.8-3.95c1.33-1.63,2.35-3.5,3.05-5.6c0.7-2.1,1.05-4.25,1.05-6.45c0-2.27-0.42-4.45-1.25-6.55
		c-0.83-2.1-1.97-3.95-3.4-5.55c-1.43-1.6-3.1-2.88-5-3.85c-1.9-0.97-3.95-1.45-6.15-1.45h-24.2V120.9z"/>
	<path class="st0" d="M363.49,152.4v-71h23.6c5.6,0,10.52,0.93,14.75,2.8c4.23,1.87,7.75,4.4,10.55,7.6c2.8,3.2,4.9,6.95,6.3,11.25
		c1.4,4.3,2.1,8.88,2.1,13.75c0,5.4-0.78,10.28-2.35,14.65c-1.57,4.37-3.82,8.1-6.75,11.2c-2.93,3.1-6.48,5.5-10.65,7.2
		c-4.17,1.7-8.82,2.55-13.95,2.55H363.49z M415.69,116.8c0-4.47-0.63-8.58-1.9-12.35c-1.27-3.77-3.12-7.02-5.55-9.75
		c-2.43-2.73-5.42-4.87-8.95-6.4c-3.53-1.53-7.6-2.3-12.2-2.3h-18.5v61.8h18.5c4.67,0,8.78-0.78,12.35-2.35
		c3.57-1.57,6.55-3.75,8.95-6.55c2.4-2.8,4.22-6.08,5.45-9.85C415.08,125.28,415.69,121.2,415.69,116.8z"/>
	<path class="st0" d="M476.09,93.2c-4.6-5.13-11.1-7.7-19.5-7.7c-6.93,0-11.98,1.32-15.15,3.95c-3.17,2.63-4.75,6.18-4.75,10.65
		c0,2.27,0.4,4.15,1.2,5.65c0.8,1.5,2.05,2.78,3.75,3.85c1.7,1.07,3.85,1.97,6.45,2.7c2.6,0.73,5.73,1.5,9.4,2.3
		c3.8,0.8,7.25,1.68,10.35,2.65c3.1,0.97,5.73,2.18,7.9,3.65c2.17,1.47,3.83,3.27,5,5.4c1.17,2.13,1.75,4.77,1.75,7.9
		c0,3.13-0.62,5.87-1.85,8.2c-1.23,2.33-2.97,4.28-5.2,5.85c-2.23,1.57-4.9,2.75-8,3.55c-3.1,0.8-6.55,1.2-10.35,1.2
		c-11.07,0-20.43-3.53-28.1-10.6l2.7-4.1c3,3.13,6.67,5.62,11,7.45c4.33,1.83,9.2,2.75,14.6,2.75c6.2,0,11.05-1.13,14.55-3.4
		c3.5-2.27,5.25-5.7,5.25-10.3c0-2.33-0.47-4.32-1.4-5.95c-0.93-1.63-2.32-3.05-4.15-4.25c-1.83-1.2-4.15-2.23-6.95-3.1
		c-2.8-0.87-6.07-1.7-9.8-2.5c-3.8-0.8-7.15-1.65-10.05-2.55c-2.9-0.9-5.33-2.03-7.3-3.4c-1.97-1.37-3.45-3.02-4.45-4.95
		c-1-1.93-1.5-4.37-1.5-7.3c0-3.2,0.62-6.03,1.85-8.5c1.23-2.47,2.95-4.55,5.15-6.25c2.2-1.7,4.83-2.98,7.9-3.85
		c3.07-0.87,6.46-1.3,10.2-1.3c4.6,0,8.7,0.68,12.3,2.05c3.6,1.37,6.87,3.45,9.8,6.25L476.09,93.2z"/>
</g>
<g>
	<path class="st0" d="M45.65,194.82v-37.97h16.1c1.75,0,3.36,0.37,4.84,1.1c1.48,0.73,2.75,1.69,3.82,2.89
		c1.07,1.19,1.91,2.55,2.51,4.06c0.61,1.52,0.91,3.04,0.91,4.57c0,1.6-0.29,3.16-0.86,4.68c-0.57,1.52-1.37,2.86-2.41,4.04
		c-1.03,1.18-2.28,2.12-3.74,2.83c-1.46,0.71-3.07,1.07-4.81,1.07h-8.98v12.73H45.65z M53.03,175.62h8.56c1.35,0,2.49-0.55,3.4-1.66
		c0.91-1.1,1.36-2.6,1.36-4.49c0-0.96-0.14-1.83-0.43-2.59c-0.29-0.77-0.66-1.42-1.12-1.95c-0.46-0.53-1.01-0.94-1.63-1.2
		c-0.62-0.27-1.26-0.4-1.9-0.4h-8.23V175.62z"/>
	<path class="st0" d="M110.89,156.85v37.97h-7.33v-16.2H86.35v16.2h-7.38v-37.97h7.38v15.35h17.22v-15.35H110.89z"/>
	<path class="st0" d="M135.01,195.09c-2.78,0-5.3-0.54-7.57-1.63c-2.26-1.09-4.21-2.53-5.83-4.33c-1.62-1.8-2.88-3.86-3.77-6.18
		c-0.89-2.32-1.34-4.69-1.34-7.11c0-2.53,0.47-4.95,1.42-7.27c0.94-2.32,2.25-4.37,3.9-6.15c1.66-1.78,3.63-3.2,5.91-4.25
		c2.28-1.05,4.76-1.58,7.43-1.58c2.74,0,5.25,0.56,7.51,1.68c2.26,1.12,4.2,2.59,5.8,4.41c1.6,1.82,2.85,3.89,3.74,6.2
		c0.89,2.32,1.34,4.67,1.34,7.06c0,2.53-0.46,4.95-1.39,7.25c-0.93,2.3-2.21,4.33-3.85,6.1c-1.64,1.76-3.6,3.17-5.88,4.22
		C140.16,194.56,137.68,195.09,135.01,195.09z M123.99,175.84c0,1.64,0.25,3.23,0.75,4.76c0.5,1.53,1.22,2.89,2.17,4.06
		c0.94,1.18,2.1,2.12,3.48,2.83c1.37,0.71,2.93,1.07,4.68,1.07c1.78,0,3.36-0.37,4.73-1.1c1.37-0.73,2.53-1.7,3.48-2.91
		c0.94-1.21,1.66-2.58,2.14-4.09c0.48-1.52,0.72-3.06,0.72-4.63c0-1.64-0.26-3.23-0.78-4.76c-0.52-1.53-1.25-2.89-2.19-4.06
		c-0.94-1.18-2.1-2.11-3.48-2.81c-1.37-0.7-2.91-1.04-4.63-1.04c-1.78,0-3.37,0.37-4.76,1.1c-1.39,0.73-2.55,1.69-3.48,2.89
		c-0.93,1.19-1.63,2.55-2.11,4.06C124.23,172.73,123.99,174.27,123.99,175.84z"/>
	<path class="st0" d="M185.86,163.32h-12.14v31.5h-7.33v-31.5h-12.14v-6.47h31.6V163.32z"/>
	<path class="st0" d="M205.01,195.09c-2.78,0-5.3-0.54-7.57-1.63c-2.26-1.09-4.21-2.53-5.83-4.33c-1.62-1.8-2.88-3.86-3.77-6.18
		c-0.89-2.32-1.34-4.69-1.34-7.11c0-2.53,0.47-4.95,1.42-7.27c0.94-2.32,2.25-4.37,3.9-6.15c1.66-1.78,3.63-3.2,5.91-4.25
		c2.28-1.05,4.76-1.58,7.43-1.58c2.74,0,5.25,0.56,7.51,1.68c2.26,1.12,4.2,2.59,5.8,4.41c1.6,1.82,2.85,3.89,3.74,6.2
		c0.89,2.32,1.34,4.67,1.34,7.06c0,2.53-0.46,4.95-1.39,7.25c-0.93,2.3-2.21,4.33-3.85,6.1s-3.6,3.17-5.88,4.22
		C210.16,194.56,207.68,195.09,205.01,195.09z M193.99,175.84c0,1.64,0.25,3.23,0.75,4.76c0.5,1.53,1.22,2.89,2.17,4.06
		c0.94,1.18,2.1,2.12,3.48,2.83c1.37,0.71,2.93,1.07,4.68,1.07c1.78,0,3.36-0.37,4.73-1.1c1.37-0.73,2.53-1.7,3.48-2.91
		c0.94-1.21,1.66-2.58,2.14-4.09s0.72-3.06,0.72-4.63c0-1.64-0.26-3.23-0.78-4.76c-0.52-1.53-1.25-2.89-2.19-4.06
		c-0.94-1.18-2.1-2.11-3.48-2.81c-1.37-0.7-2.91-1.04-4.63-1.04c-1.78,0-3.37,0.37-4.76,1.1c-1.39,0.73-2.55,1.69-3.48,2.89
		c-0.93,1.19-1.63,2.55-2.11,4.06C194.23,172.73,193.99,174.27,193.99,175.84z"/>
	<path class="st0" d="M255.59,190.54c-3.03,3.03-6.56,4.55-10.59,4.55c-2.5,0-4.84-0.5-7.03-1.5s-4.1-2.37-5.72-4.12
		c-1.62-1.75-2.91-3.8-3.85-6.18s-1.42-4.93-1.42-7.67c0-2.6,0.47-5.05,1.42-7.35s2.25-4.31,3.9-6.04c1.66-1.73,3.61-3.1,5.86-4.12
		c2.25-1.02,4.69-1.52,7.33-1.52c3.56,0,6.62,0.75,9.17,2.25c2.55,1.5,4.46,3.51,5.75,6.04l-5.51,4.06
		c-0.96-1.89-2.31-3.33-4.04-4.33c-1.73-1-3.61-1.5-5.64-1.5c-1.6,0-3.08,0.34-4.41,1.02s-2.48,1.6-3.42,2.78
		c-0.95,1.18-1.68,2.53-2.19,4.06c-0.52,1.53-0.77,3.16-0.77,4.87c0,1.78,0.28,3.45,0.86,5c0.57,1.55,1.35,2.9,2.35,4.04
		c1,1.14,2.18,2.04,3.56,2.7c1.37,0.66,2.86,0.99,4.47,0.99c3.67,0,6.99-1.73,9.95-5.19v-2.67h-7.65v-5.4h13.74v19.52h-6.1V190.54z"
		/>
	<path class="st0" d="M268,194.82v-37.97h16.79c1.75,0,3.36,0.37,4.84,1.1c1.48,0.73,2.75,1.69,3.82,2.89
		c1.07,1.19,1.91,2.55,2.51,4.06c0.61,1.52,0.91,3.04,0.91,4.57c0,2.46-0.62,4.7-1.84,6.71c-1.23,2.01-2.9,3.47-5,4.36l8.66,14.28
		h-8.29l-7.75-12.73h-7.27v12.73H268z M275.38,175.62h9.25c0.68,0,1.31-0.16,1.9-0.48c0.59-0.32,1.1-0.76,1.52-1.31
		c0.43-0.55,0.77-1.2,1.02-1.95s0.38-1.55,0.38-2.41c0-0.89-0.14-1.71-0.43-2.46c-0.29-0.75-0.67-1.4-1.15-1.95
		c-0.48-0.55-1.03-0.98-1.66-1.28c-0.62-0.3-1.26-0.45-1.9-0.45h-8.93V175.62z"/>
	<path class="st0" d="M313.77,156.85h6.52l14.44,37.97h-7.59l-3.53-9.46h-13.26l-3.48,9.46h-7.59L313.77,156.85z M322.27,180.17
		l-5.24-14.92l-5.45,14.92H322.27z"/>
	<path class="st0" d="M338.9,194.82v-37.97H355c1.75,0,3.36,0.37,4.84,1.1c1.48,0.73,2.75,1.69,3.82,2.89
		c1.07,1.19,1.91,2.55,2.51,4.06c0.61,1.52,0.91,3.04,0.91,4.57c0,1.6-0.29,3.16-0.86,4.68c-0.57,1.52-1.37,2.86-2.41,4.04
		c-1.03,1.18-2.28,2.12-3.74,2.83c-1.46,0.71-3.07,1.07-4.81,1.07h-8.98v12.73H338.9z M346.28,175.62h8.56
		c1.35,0,2.49-0.55,3.4-1.66c0.91-1.1,1.36-2.6,1.36-4.49c0-0.96-0.14-1.83-0.43-2.59c-0.29-0.77-0.66-1.42-1.12-1.95
		c-0.46-0.53-1.01-0.94-1.63-1.2c-0.62-0.27-1.26-0.4-1.9-0.4h-8.23V175.62z"/>
	<path class="st0" d="M404.14,156.85v37.97h-7.33v-16.2H379.6v16.2h-7.38v-37.97h7.38v15.35h17.22v-15.35H404.14z"/>
	<path class="st0" d="M416.33,156.85l9.36,18.29l9.52-18.29h7.97l-13.8,24.71v13.26h-7.33v-13.37l-13.74-24.6H416.33z"/>
</g>
</svg>
